<svg width="387" height="776" viewBox="0 0 387 776" fill="none" xmlns="http://www.w3.org/2000/svg">
<path opacity="0.3" d="M275.281 156.798C275.281 258.444 357.681 340.843 459.326 340.843L459.326 156.798L362.048 156.798L275.281 156.798Z" fill="#E2703A"/>
<path opacity="0.3" d="M452.314 364.945C348.249 364.945 263.887 282.741 263.887 181.338C263.887 282.741 179.526 364.945 75.4605 364.945C179.526 364.945 263.887 447.148 263.887 548.551C263.887 447.148 348.249 364.945 452.314 364.945Z" fill="#E55733"/>
<path opacity="0.3" d="M40.4044 392.382H60.7822C152.625 392.382 227.079 466.835 227.079 558.678V579.056H206.701C114.858 579.056 40.4044 504.603 40.4044 412.76V392.382Z" fill="#E55733"/>
<path opacity="0.3" d="M436.253 668.581C509.305 666.871 568 607.116 568 533.652C568 459.113 507.574 398.686 433.034 398.686C359.57 398.686 299.815 457.381 298.105 530.433L298.067 668.619L436.253 668.581Z" fill="#E2703A"/>
<g opacity="0.3">
<path d="M345.58 30.4563C329.089 46.9293 328.948 74.6969 328.948 74.6969C328.948 74.6969 355.545 75.7563 372.036 59.2832C388.527 42.8102 388.668 15.0426 388.668 15.0426C388.668 15.0426 362.072 13.9832 345.58 30.4563Z" fill="#E55733"/>
<path d="M312.316 30.4563C328.807 46.9293 328.948 74.6969 328.948 74.6969C328.948 74.6969 302.351 75.7563 285.86 59.2832C269.369 42.8102 269.228 15.0426 269.228 15.0426C269.228 15.0426 295.825 13.9832 312.316 30.4563Z" fill="#E55733"/>
<path d="M345.58 118.914C329.089 102.441 328.948 74.6738 328.948 74.6738C328.948 74.6738 355.545 73.6144 372.036 90.0874C388.527 106.56 388.668 134.328 388.668 134.328C388.668 134.328 362.072 135.387 345.58 118.914Z" fill="#E55733"/>
<path d="M312.316 118.914C328.807 102.441 328.948 74.6738 328.948 74.6738C328.948 74.6738 302.351 73.6144 285.86 90.0874C269.369 106.56 269.228 134.328 269.228 134.328C269.228 134.328 295.825 135.387 312.316 118.914Z" fill="#E55733"/>
</g>
<path opacity="0.3" d="M112.708 217.539C112.708 155.342 163.129 104.921 225.326 104.921V217.539C225.326 279.736 174.905 330.157 112.708 330.157C50.5106 330.157 0.0898438 279.736 0.0898438 217.539V104.921C62.287 104.921 112.708 155.342 112.708 217.539Z" fill="#E2703A"/>
<path opacity="0.3" d="M113.146 60.2247C128.151 60.2247 140.315 72.5847 140.315 87.8315L113.146 115.438L85.9775 87.8315C85.9775 72.5847 98.1413 60.2247 113.146 60.2247Z" fill="#E2703A"/>
<g opacity="0.3">
<path d="M170.55 604.472L85.1011 689.921L170.55 775.371L170.55 604.472Z" fill="#E2703A"/>
<path d="M256 604.472L170.551 689.921L256 775.371L256 604.472Z" fill="#E2703A"/>
</g>
</svg>
