<svg width="271" height="430" viewBox="0 0 271 430" fill="none" xmlns="http://www.w3.org/2000/svg">
<g opacity="0.3">
<path d="M95.7949 304.189C95.8688 256.103 55.6087 215.352 55.6087 215.352C55.6087 215.352 15.2288 252.564 15.1549 300.651C15.081 348.738 55.3411 389.489 55.3411 389.489C55.3411 389.489 95.721 352.276 95.7949 304.189Z" fill="#E55733"/>
<path d="M144.367 255.712C96.2805 255.692 55.6087 215.352 55.6087 215.352C55.6087 215.352 92.9008 175.045 140.987 175.065C189.074 175.086 229.746 215.426 229.746 215.426C229.746 215.426 192.454 255.733 144.367 255.712Z" fill="#E55733"/>
<path d="M-33.1161 175.024C14.9706 175.045 55.6424 215.385 55.6424 215.385C55.6424 215.385 18.3503 255.692 -29.7363 255.671C-77.823 255.651 -118.495 215.311 -118.495 215.311C-118.495 215.311 -81.2027 175.004 -33.1161 175.024Z" fill="#E55733"/>
<path d="M15.456 126.548C15.3821 174.634 55.6422 215.385 55.6422 215.385C55.6422 215.385 96.0222 178.173 96.0961 130.086C96.17 81.9992 55.9098 41.2482 55.9098 41.2482C55.9098 41.2482 15.5299 78.4611 15.456 126.548Z" fill="#E55733"/>
</g>
</svg>
